<?xml version="1.0" ?><svg height="300" id="svg2" version="1.1" viewBox="0 0 281.25 281.25" width="300" xml:space="preserve" xmlns="http://www.w3.org/2000/svg" xmlns:cc="http://creativecommons.org/ns#" xmlns:dc="http://purl.org/dc/elements/1.1/" xmlns:rdf="http://www.w3.org/1999/02/22-rdf-syntax-ns#" xmlns:svg="http://www.w3.org/2000/svg"><defs id="defs4"/><g id="layer1" transform="translate(6984.8564,-4565.9518)"><g id="g21809"><path d="m -6828.8768,4634.6281 v 0 c -1.632,-0.039 -3.2582,0.01 -4.8688,0.1355 -6.4255,0.5065 -12.5583,2.2284 -18.3014,4.4696 -15.1753,5.9221 -28.6598,15.9571 -38.6975,28.786 -4.3268,4.85 -8.3239,9.9858 -11.9916,15.3461 l -48.7683,41.9971 a 4.6875,4.6875 0 0 0 -0.4944,6.6101 4.6875,4.6875 0 0 0 6.6119,0.4925 l 29.2585,-25.1934 c -3.2595,7.2724 -5.9667,14.7934 -8.0475,22.4926 a 4.6875,4.6875 0 0 0 -0.024,0.3571 4.6875,4.6875 0 0 0 -0.06,0.8844 4.6875,4.6875 0 0 0 0.075,0.9228 4.6875,4.6875 0 0 0 0.2857,0.8478 4.6875,4.6875 0 0 0 0.4138,0.8075 4.6875,4.6875 0 0 0 0.6006,0.6867 4.6875,4.6875 0 0 0 0.6885,0.5841 4.6875,4.6875 0 0 0 0.2673,0.227 c 6.8454,3.8096 13.9211,7.1981 21.167,10.1734 l -13.9893,26.3928 a 4.6875,4.6875 0 0 0 1.9446,6.3391 4.6875,4.6875 0 0 0 6.3373,-1.9482 l 14.5257,-27.4018 c 2.899,1.0324 5.8175,2.0095 8.7616,2.9059 17.1536,5.2224 35.0108,8.1019 52.9358,8.5474 l 18.6255,7.705 a 4.6875,4.6875 0 0 0 0.1666,0.048 4.6875,4.6875 0 0 0 0.1593,0.06 4.6875,4.6875 0 0 0 0.2362,0.053 4.6875,4.6875 0 0 0 1.4814,0.1867 4.6875,4.6875 0 0 0 0.018,0 4.6875,4.6875 0 0 0 0.1135,-0.015 4.6875,4.6875 0 0 0 0.033,0 4.6875,4.6875 0 0 0 0.2398,-0.038 4.6875,4.6875 0 0 0 0.3589,-0.059 4.6875,4.6875 0 0 0 0.2069,-0.057 4.6875,4.6875 0 0 0 0.152,-0.044 4.6875,4.6875 0 0 0 0.2802,-0.093 4.6875,4.6875 0 0 0 0.2783,-0.1227 4.6875,4.6875 0 0 0 0.3113,-0.1465 4.6875,4.6875 0 0 0 0.037,-0.02 4.6875,4.6875 0 0 0 0.2582,-0.1648 4.6875,4.6875 0 0 0 0.2673,-0.1777 4.6875,4.6875 0 0 0 0.2399,-0.1977 4.6875,4.6875 0 0 0 0.1226,-0.1062 4.6875,4.6875 0 0 0 0.1538,-0.1447 4.6875,4.6875 0 0 0 0.2161,-0.2435 4.6875,4.6875 0 0 0 0.2106,-0.2508 4.6875,4.6875 0 0 0 0.066,-0.086 4.6875,4.6875 0 0 0 0.029,-0.044 4.6875,4.6875 0 0 0 0.1263,-0.205 4.6875,4.6875 0 0 0 0.1392,-0.2216 4.6875,4.6875 0 0 0 0.1703,-0.3625 4.6875,4.6875 0 0 0 0.051,-0.095 4.6875,4.6875 0 0 0 0.027,-0.072 4.6875,4.6875 0 0 0 0.02,-0.059 4.6875,4.6875 0 0 0 0.02,-0.051 4.6875,4.6875 0 0 0 0.029,-0.081 4.6875,4.6875 0 0 0 0.13,-0.4468 4.6875,4.6875 0 0 0 0.015,-0.071 4.6875,4.6875 0 0 0 0.011,-0.029 4.6875,4.6875 0 0 0 0.026,-0.1153 4.6875,4.6875 0 0 0 0.064,-0.4523 4.6875,4.6875 0 0 0 0,-0.048 4.6875,4.6875 0 0 0 0,-0.051 4.6875,4.6875 0 0 0 0.01,-0.1172 4.6875,4.6875 0 0 0 0,-0.4669 c -0.1375,-2.3733 -0.2652,-4.7471 -0.3937,-7.121 l 49.6692,-17.5177 12.8778,4.2499 a 4.6875,4.6875 0 0 0 0.6006,0.1355 4.6875,4.6875 0 0 0 0.099,0.037 4.6875,4.6875 0 0 0 0.059,0 4.6875,4.6875 0 0 0 1.6589,-0.051 4.6875,4.6875 0 0 0 0.1667,-0.029 4.6875,4.6875 0 0 0 1.5197,-0.6848 4.6875,4.6875 0 0 0 0.13,-0.084 4.6875,4.6875 0 0 0 1.1408,-1.2121 4.6875,4.6875 0 0 0 0.095,-0.1355 4.6875,4.6875 0 0 0 0.4523,-0.9558 4.6875,4.6875 0 0 0 0.1721,-0.6977 c 3.0843,-18.4797 1.6372,-37.657 -4.1858,-55.4644 -3.6324,-11.1083 -8.9425,-21.6581 -15.6995,-31.1939 a 4.6875,4.6875 0 0 0 -0.01,-0.01 4.6875,4.6875 0 0 0 -0.022,-0.035 4.6875,4.6875 0 0 0 -0.1721,-0.1593 4.6875,4.6875 0 0 0 -0.9595,-0.8973 4.6875,4.6875 0 0 0 -0.1886,-0.1648 4.6875,4.6875 0 0 0 -0.1044,-0.051 4.6875,4.6875 0 0 0 -1.452,-0.5457 4.6875,4.6875 0 0 0 -0.1263,-0.048 4.6875,4.6875 0 0 0 -0.029,0 4.6875,4.6875 0 0 0 -0.028,-0.011 4.6875,4.6875 0 0 0 -0.2472,0.011 4.6875,4.6875 0 0 0 -0.5786,-0.064 l -37.4359,0.7544 c -3.8893,-6.0517 -9.581,-10.8571 -16.2396,-13.645 -4.6605,-1.9514 -9.6004,-2.8571 -14.4965,-2.9736 z m -0.2362,9.3768 c 3.8832,0.096 7.6825,0.8127 11.1072,2.2467 3.4795,1.4569 6.6551,3.7273 9.2303,6.5295 -1.3424,0.5525 -2.6309,1.2441 -3.8305,2.0893 -3.4934,2.4613 -6.0909,6.0058 -7.3865,10.0781 -1.1031,3.4674 -1.1653,6.9243 -0.8734,10.0726 0.2907,3.1348 0.9218,5.9796 1.3989,8.5968 2.1647,11.8723 2.4974,24.2498 2.9388,36.8244 0.4157,11.8446 0.9487,23.684 1.5857,35.5188 0,0.108 0.01,0.216 0.01,0.3241 l -8.985,-3.7171 c 2.2812,-12.0559 3.6387,-24.2839 4.0375,-36.5478 0.297,-9.1346 0.079,-18.5479 -1.9061,-27.8723 -1.9903,-9.3464 -5.819,-18.6009 -12.2718,-26.1603 -4.8475,-5.6789 -11.4275,-10.5448 -19.4275,-11.9385 1.5924,-0.7452 3.2064,-1.4413 4.8432,-2.0801 5.1445,-2.0076 10.4042,-3.4443 15.6299,-3.8562 1.3022,-0.1026 2.6057,-0.1399 3.9001,-0.108 z m -29.8279,15.0439 c 1.2749,-0.056 2.5337,0.014 3.7555,0.2198 l -41.1676,77.666 c -6.0567,-2.4526 -11.9869,-5.2154 -17.7576,-8.28 5.9979,-20.0807 16.4659,-38.8464 30.4285,-54.4721 4.1188,-4.6095 8.4288,-8.7683 13.2807,-11.5723 3.5989,-2.0799 7.604,-3.3908 11.4605,-3.5614 z m 84.8383,1.0932 c -5.6116,5.1157 -10.7608,10.7375 -15.3571,16.7853 -7.7019,10.1342 -13.7665,21.4488 -18.0523,33.4002 -0.3827,-9.3801 -0.9993,-18.8889 -2.732,-28.3923 -0.5155,-2.8272 -1.0669,-5.4046 -1.2872,-7.7802 -0.219,-2.3619 -0.1022,-4.5585 0.4724,-6.3647 0.66,-2.0745 2.0747,-4.0013 3.8544,-5.2551 1.7797,-1.2539 4.07,-1.9352 6.2457,-1.8585 a 4.6875,4.6875 0 0 0 0.099,-0.016 4.6875,4.6875 0 0 0 0.1611,0.018 z m 12.3706,1.7853 c 4.9305,7.6765 8.8929,15.9817 11.7279,24.6515 4.7774,14.6098 6.3425,30.2862 4.6033,45.5639 l -5.0885,-1.6791 c 2.3571,-13.4394 0.2818,-27.5525 -5.9546,-39.7192 -3.8365,-7.4845 -9.1784,-14.1559 -15.6134,-19.5538 3.2562,-3.2883 6.7011,-6.3874 10.3253,-9.2633 z m -84.8621,1.1517 c 1.954,1.4067 3.7842,3.096 5.4053,4.9951 5.1768,6.0646 8.4914,13.8542 10.2319,22.0276 1.7451,8.1953 1.9917,16.8443 1.7066,25.6128 -0.3807,11.71 -1.672,23.3913 -3.8397,34.9054 -16.0424,-0.6609 -32.0067,-3.3659 -47.3658,-8.042 -2.3664,-0.7205 -4.713,-1.5033 -7.0495,-2.3163 z m 68.205,15.0439 c 5.608,4.638 10.2894,10.4309 13.6047,16.8988 5.4585,10.6489 7.1835,23.2797 4.8505,35.0263 l -45.4376,16.0254 c 1.3997,-22.8183 9.5575,-45.2897 23.377,-63.4735 1.1593,-1.5254 2.3714,-3.0109 3.6054,-4.477 z" id="path21798" style="color:#000000;fill:#3d3d3d;fill-rule:evenodd;stroke-linecap:round;stroke-linejoin:round"/><path d="m -6782.1611,4682.8288 c -1.8863,2.4952 -3.6575,5.0761 -5.3284,7.7215 3.5526,2.3332 6.6649,5.3664 9.0546,8.8641 3.9843,5.832 5.9767,13.11 5.603,20.1819 l -31.1609,14.4361 c -0.6023,3.6217 -1.0311,7.2703 -1.2908,10.9295 l 38.8439,-17.9956 a 4.6875,4.6875 0 0 0 0.8533,-0.5145 4.6875,4.6875 0 0 0 0.046,-0.037 4.6875,4.6875 0 0 0 0.8276,-0.824 4.6875,4.6875 0 0 0 0.02,-0.024 4.6875,4.6875 0 0 0 0.5841,-1.0034 4.6875,4.6875 0 0 0 0.038,-0.093 4.6875,4.6875 0 0 0 0.3003,-1.1114 4.6875,4.6875 0 0 0 0.01,-0.022 c 1.3682,-10.1924 -1.1293,-20.7213 -6.9305,-29.2127 -3.0539,-4.47 -6.9668,-8.3123 -11.4661,-11.2957 z" id="path16810" style="color:#000000;fill:#dcac3e;fill-opacity:1;fill-rule:evenodd;stroke-linecap:round;stroke-linejoin:round"/></g></g></svg>